<svg xmlns="http://www.w3.org/2000/svg" x="0px" y="0px"
width="48" height="48"
viewBox="0 0 172 172"
style=" fill:#000000;">
<g fill="none" fill-rule="nonzero" stroke="none" stroke-width="1" stroke-linecap="butt" stroke-linejoin="miter" 
stroke-miterlimit="10" stroke-dasharray="" stroke-dashoffset="0" font-family="none" font-weight="none" font-size="none" 
text-anchor="none" style="mix-blend-mode: normal">
<path d="M0,172v-172h172v172z" fill="none"></path>
<g fill="#000000"><path d="M143.33333,64.5c-3.95804,0 -7.16667,3.20863 -7.16667,7.16667c0,3.95804 3.20863,7.16667 7.16667,7.16667c3.95804,0 7.16667,
-3.20863 7.16667,-7.16667c0,-3.95804 -3.20863,-7.16667 -7.16667,-7.16667zM143.33333,21.5c-7.91608,0 -14.33333,6.41725 -14.33333,14.33333c0,
7.91608 6.41725,14.33333 14.33333,14.33333c7.91608,0 14.33333,-6.41725 14.33333,-14.33333c0,-7.91608 -6.41725,-14.33333 -14.33333,-14.33333zM57.33333,
21.5c-15.83117,0 -28.66667,12.8355 -28.66667,28.66667c0,21.5 28.66667,50.16667 28.66667,50.16667c0,0 28.66667,-28.66667 28.66667,-50.16667c0,-15.83117 -12.8355,
-28.66667 -28.66667,-28.66667zM57.33333,64.5c-7.91917,0 -14.33333,-6.41417 -14.33333,-14.33333c0,-7.91917 6.41417,-14.33333 14.33333,-14.33333c7.91917,
0 14.33333,6.41417 14.33333,14.33333c0,7.91917 -6.41417,14.33333 -14.33333,14.33333zM143.33333,93.16667c-3.95804,0 -7.16667,3.20863 -7.16667,
7.16667c0,3.95804 3.20863,7.16667 7.16667,7.16667c3.95804,0 7.16667,-3.20863 7.16667,-7.16667c0,-3.95804 -3.20863,-7.16667 -7.16667,
-7.16667zM114.66667,93.16667c-3.95804,0 -7.16667,3.20863 -7.16667,7.16667c0,3.95804 3.20863,7.16667 7.16667,7.16667c3.95804,0 7.16667,
-3.20863 7.16667,-7.16667c0,-3.95804 -3.20863,-7.16667 -7.16667,-7.16667zM86,93.16667c-3.95804,0 -7.16667,3.20863 -7.16667,7.16667c0,3.95804 3.20863,
7.16667 7.16667,7.16667c3.95804,0 7.16667,-3.20863 7.16667,-7.16667c0,-3.95804 -3.20863,-7.16667 -7.16667,-7.16667zM28.66667,121.83333c-7.91608,
0 -14.33333,6.41725 -14.33333,14.33333c0,7.91608 6.41725,14.33333 14.33333,14.33333c7.91608,0 14.33333,-6.41725 14.33333,-14.33333c0,-7.91608 -6.41725,
-14.33333 -14.33333,-14.33333zM28.66667,93.16667c-3.95804,0 -7.16667,3.20863 -7.16667,7.16667c0,3.95804 3.20863,7.16667 7.16667,
7.16667c3.95804,0 7.16667,-3.20863 7.16667,-7.16667c0,-3.95804 -3.20863,-7.16667 -7.16667,-7.16667z">
</path>
</g></g>
</svg> 